<?xml version="1.0" encoding="UTF-8"?>
<svg version="1.1" xmlns="http://www.w3.org/2000/svg" width="820" height="200">
<path d="M0 0 C1.25441895 -0.02803711 1.25441895 -0.02803711 2.53417969 -0.05664062 C8.34671538 0.00349703 12.84726018 1.20409183 17.6875 4.5 C22.51761387 9.81312526 22.52129239 15.97828773 22.1953125 22.94140625 C21.02531853 36.49040679 14.99088874 49.83133916 10.22851562 62.43017578 C9.89787109 63.31044434 9.56722656 64.19071289 9.2265625 65.09765625 C8.92959473 65.87633057 8.63262695 66.65500488 8.32666016 67.45727539 C7.5381904 69.62045528 7.5381904 69.62045528 7.6875 72.5 C9.83364809 69.8960926 11.97936057 67.29182655 14.125 64.6875 C14.76808105 63.90721436 15.41116211 63.12692871 16.07373047 62.32299805 C19.50012549 58.16360384 22.91472968 53.9953374 26.3125 49.8125 C29.78746026 45.56460465 33.31592483 41.36494942 36.875 37.1875 C37.60614014 36.32475464 37.60614014 36.32475464 38.35205078 35.44458008 C47.60189637 24.64160047 47.60189637 24.64160047 51.5625 24.125 C52.26375 24.24875 52.965 24.3725 53.6875 24.5 C54.74838144 29.8569773 54.46595143 33.67540935 53.0703125 38.9375 C52.80539505 39.96315063 52.80539505 39.96315063 52.53512573 41.00952148 C51.97320353 43.17645428 51.39378274 45.3381887 50.8125 47.5 C50.24165793 49.66252957 49.67462684 51.82597989 49.11129761 53.99047852 C48.59834237 55.95514307 48.07510035 57.91711341 47.55126953 59.87890625 C46.34349883 64.94212137 45.54676674 69.97768562 45.5 75.1875 C45.48582031 75.91324219 45.47164062 76.63898438 45.45703125 77.38671875 C45.71961006 79.79443296 46.49393617 81.41008389 47.6875 83.5 C55.11523366 82.81105079 58.6023045 78.57729923 63.6875 73.5 C64.39390625 72.80519531 65.1003125 72.11039062 65.828125 71.39453125 C78.2243064 58.38830155 87.3506904 38.69937781 88.0625 20.6875 C87.87764819 16.13342368 86.69648945 12.58972852 84.6875 8.5 C82.66770421 6.94033992 82.66770421 6.94033992 80.6875 6.5 C80.6875 5.51 80.6875 4.52 80.6875 3.5 C88.40398383 3.53362302 88.40398383 3.53362302 91.36328125 5.76171875 C96.64528223 11.94742492 96.16161003 18.7562029 95.6875 26.5 C93.77588399 41.47782654 85.27836021 57.07613755 75.6875 68.5 C74.97851562 69.34691406 74.26953125 70.19382812 73.5390625 71.06640625 C57.55582551 89.43310841 57.55582551 89.43310841 46 91 C42.6875 90.5 42.6875 90.5 40.3125 88.3125 C32.60050189 74.96481097 40.64930191 52.38531854 43.6875 38.5 C28.55345692 52.84367719 16.81019633 69.55012529 5.96069336 87.29638672 C4.34690111 89.92455335 2.87696499 92.31053501 0.6875 94.5 C-1.875 94.6875 -1.875 94.6875 -4.3125 94.5 C-5.3125 93.5 -5.3125 93.5 -5.37597656 91.78833008 C-4.79383463 83.93681408 -2.3446894 76.8035227 0.17974854 69.41152954 C11.8377634 39.68170066 11.8377634 39.68170066 11.5 9.0625 C9.33678543 6.00416216 8.32506229 5.30834718 4.6875 4.5 C-10.36362729 3.15614935 -27.05374036 10.41977882 -38.69921875 19.79296875 C-44.41052118 25.83616285 -47.72066336 32.8667036 -47.5859375 41.15234375 C-47.06228499 45.64827458 -45.244525 48.926643 -41.734375 51.78515625 C-37.26301767 54.59486052 -32.55490378 56.11556914 -27.234375 55.10546875 C-25.25372533 54.59563485 -23.2826377 54.04905477 -21.3125 53.5 C-19.9925 53.5 -18.6725 53.5 -17.3125 53.5 C-18.3125 56.5 -18.3125 56.5 -20.38671875 57.6640625 C-27.33053288 59.64800939 -37.28485459 59.94733763 -43.9375 56.9375 C-48.34049473 54.21369616 -51.99969349 50.12561302 -54.3125 45.5 C-55.31917288 34.67107604 -54.02192263 28.37065013 -47.31640625 20.01171875 C-40.50130939 12.43811196 -32.55111448 8.37989204 -23.3125 4.5 C-22.25160156 4.04367188 -21.19070313 3.58734375 -20.09765625 3.1171875 C-13.43516412 0.66484162 -7.03518339 0.10803572 0 0 Z M5.6875 73.5 C6.6875 75.5 6.6875 75.5 6.6875 75.5 Z " fill="#4587FF" transform="translate(472.3125,39.5)"/>
<path d="M0 0 C2.05078125 0.03255208 4.1015625 0.06510417 6.15234375 0.09765625 C6.64734375 1.08765625 6.64734375 1.08765625 7.15234375 2.09765625 C5.71484375 4.72265625 5.71484375 4.72265625 4.15234375 7.09765625 C5.14234375 7.47277344 6.13234375 7.84789062 7.15234375 8.234375 C28.28842126 16.36981127 28.28842126 16.36981127 33.15234375 26.09765625 C33.69885852 30.57728554 33.58235586 34.14415113 31.71484375 38.28515625 C26.49937273 44.00945371 20.21121379 47.18297057 13.15234375 50.09765625 C14.67214844 50.56945312 14.67214844 50.56945312 16.22265625 51.05078125 C17.5743761 51.48258065 18.92592989 51.91490013 20.27734375 52.34765625 C20.9425 52.55261719 21.60765625 52.75757813 22.29296875 52.96875 C29.39502152 55.26647295 34.99103783 58.73330603 39.15234375 65.09765625 C40.13591722 69.37406263 39.54090752 72.3205287 37.58984375 76.22265625 C29.73106284 85.49198757 20.3117181 90.35309177 8.1796875 91.58203125 C6.81725047 91.6827324 5.45384169 91.7709424 4.08984375 91.84765625 C3.36321533 91.89003418 2.63658691 91.93241211 1.88793945 91.97607422 C-6.78203092 92.35405145 -15.4613689 91.37541331 -23.84765625 89.09765625 C-24.34265625 91.07765625 -24.34265625 91.07765625 -24.84765625 93.09765625 C-26.16765625 92.76765625 -27.48765625 92.43765625 -28.84765625 92.09765625 C-28.94046875 90.67453125 -28.94046875 90.67453125 -29.03515625 89.22265625 C-29.30328125 88.19140625 -29.57140625 87.16015625 -29.84765625 86.09765625 C-32.16169495 84.8217813 -32.16169495 84.8217813 -34.84765625 84.09765625 C-37.16015625 82.72265625 -37.16015625 82.72265625 -38.84765625 81.09765625 C-38.84765625 79.77765625 -38.84765625 78.45765625 -38.84765625 77.09765625 C-35.87571775 78.22217352 -33.51324938 79.32059416 -30.84765625 81.09765625 C-30.67492187 79.92976563 -30.5021875 78.761875 -30.32421875 77.55859375 C-26.82515865 55.97886408 -19.63193248 34.89727433 -10.24609375 15.17578125 C-8.70977997 12.35765762 -8.70977997 12.35765762 -8.84765625 10.09765625 C-30.34634791 6.07614259 -30.34634791 6.07614259 -50.84765625 12.09765625 C-54.28425934 15.11554678 -56.50810826 18.37570599 -57.0859375 23.0078125 C-57.350071 30.66768395 -54.97573758 36.7339148 -50.91015625 43.16015625 C-48.50914275 45.41565378 -47.03415345 45.59452511 -43.84765625 46.09765625 C-41.69571255 49.3255718 -41.64679182 50.38166434 -41.84765625 54.09765625 C-46.007008 54.49378499 -48.85264472 54.15678323 -52.26953125 51.62109375 C-59.56517481 44.57826952 -63.88152761 36.16314556 -64.28515625 26.09765625 C-64.0798707 19.5777873 -62.75669704 15.10252426 -58.1875 10.3828125 C-49.99831809 3.50524494 -39.78700913 2.59675031 -29.47265625 2.78515625 C-28.47548584 2.79353516 -27.47831543 2.80191406 -26.45092773 2.81054688 C-19.10585177 2.92987229 -12.04371205 3.55071143 -4.84765625 5.09765625 C-4.53828125 4.45828125 -4.22890625 3.81890625 -3.91015625 3.16015625 C-2.34607564 0.12399977 -2.34607564 0.12399977 0 0 Z M0.15234375 12.09765625 C-6.01746835 24.5306515 -11.58589599 36.87926977 -15.84765625 50.09765625 C-2.65534371 50.0510403 14.34864007 46.65126545 24.15234375 37.09765625 C25.91779702 34.25488165 26.15388611 33.18094381 26.08984375 29.72265625 C24.81761562 24.80337414 22.46941097 21.55707573 18.19799805 18.86669922 C16.0033364 17.73730313 13.78759452 16.71392664 11.52734375 15.72265625 C10.76421875 15.36816406 10.00109375 15.01367188 9.21484375 14.6484375 C4.86723189 12.63266013 4.86723189 12.63266013 0.15234375 12.09765625 Z M-17.84765625 56.09765625 C-18.83462784 59.44957573 -19.81080381 62.80454888 -20.78515625 66.16015625 C-21.06294922 67.10310547 -21.34074219 68.04605469 -21.62695312 69.01757812 C-23.08151544 74.04720927 -24.27711457 78.8905607 -24.84765625 84.09765625 C-23.47473757 84.58275418 -22.09918922 85.06041138 -20.72265625 85.53515625 C-19.95695312 85.80199219 -19.19125 86.06882812 -18.40234375 86.34375 C-5.32545154 90.20283287 11.49642098 89.66168826 23.58984375 83.28515625 C27.71710987 79.76188029 30.61461678 76.86899216 32.21484375 71.59765625 C32.13506782 67.1302044 31.06090082 65.45368363 28.15234375 62.09765625 C23.42885232 58.40809248 19.14909428 57.01916018 13.40234375 55.84765625 C12.20037354 55.59508057 12.20037354 55.59508057 10.97412109 55.33740234 C0.86560374 53.31405888 -7.74928323 54.15432674 -17.84765625 56.09765625 Z " fill="#4587FF" transform="translate(142.84765625,38.90234375)"/>
<path d="M0 0 C0.82418259 2.34023534 1.1608832 3.56254169 0.29077148 5.9284668 C-0.09522217 6.59531494 -0.48121582 7.26216309 -0.87890625 7.94921875 C-1.30308838 8.70678467 -1.72727051 9.46435059 -2.16430664 10.24487305 C-2.85641235 11.45397339 -2.85641235 11.45397339 -3.5625 12.6875 C-7.05475878 19.044354 -10.16366583 25.33622 -12.5625 32.1875 C-12.80105713 32.85676514 -13.03961426 33.52603027 -13.28540039 34.21557617 C-14.83248654 38.81998553 -15.52426956 43.19458807 -16 48 C-13.03 47.505 -13.03 47.505 -10 47 C-11.15173355 49.46800047 -12.04783565 51.04783565 -14 53 C-16.71454956 53.32752234 -19.25230759 53.1308425 -22 53 C-23.60307997 51.39692003 -23.32545847 49.79314497 -23.4375 47.5625 C-23.36244143 36.07853953 -17.91167265 24.20116628 -13 14 C-13.33 13.67 -13.66 13.34 -14 13 C-26.8922342 29.82655361 -26.8922342 29.82655361 -37.01171875 48.3671875 C-37.33785156 48.90601563 -37.66398437 49.44484375 -38 50 C-41.625 50.75 -41.625 50.75 -45 51 C-43.05353702 42.9175442 -40.3638827 35.14570522 -37.51342773 27.34667969 C-35.80033897 22.58658955 -34.42619966 17.91929217 -33.45703125 12.95117188 C-32.4920557 8.83146858 -30.59930245 4.39953497 -27 2 C-23.8125 1.8125 -23.8125 1.8125 -21 2 C-19.83790577 5.48628269 -20.11383941 5.86370218 -21.65234375 9.01171875 C-22.01650391 9.76904297 -22.38066406 10.52636719 -22.75585938 11.30664062 C-23.14580078 12.09232422 -23.53574219 12.87800781 -23.9375 13.6875 C-24.32357422 14.48478516 -24.70964844 15.28207031 -25.10742188 16.10351562 C-26.06290602 18.07346443 -27.02732106 20.03849939 -28 22 C-27.61166992 21.46810059 -27.22333984 20.93620117 -26.82324219 20.38818359 C-10.6570426 -1.63954502 -10.6570426 -1.63954502 0 0 Z " fill="#4587FF" transform="translate(362,73)"/>
<path d="M0 0 C0.82306641 0.00515625 1.64613281 0.0103125 2.49414062 0.015625 C8.53277726 0.09527726 8.53277726 0.09527726 9.6875 1.25 C9.09116972 8.64449541 9.09116972 8.64449541 6.6875 12.25 C6.0275 12.25 5.3675 12.25 4.6875 12.25 C4.419375 13.4875 4.15125 14.725 3.875 16 C3.03704306 19.8220482 2.0673523 23.59370747 1.0625 27.375 C-0.07440995 31.84265619 -0.62546383 35.65986386 -0.3125 40.25 C0.30625 39.755 0.925 39.26 1.5625 38.75 C3.6875 37.25 3.6875 37.25 5.6875 37.25 C6.3475 35.93 7.0075 34.61 7.6875 33.25 C8.6775 33.25 9.6675 33.25 10.6875 33.25 C10.35552317 36.26489166 9.71491538 37.22393846 7.47265625 39.35546875 C6.57417969 40.04253906 5.67570313 40.72960937 4.75 41.4375 C3.85410156 42.13230469 2.95820312 42.82710937 2.03515625 43.54296875 C-1.65161324 46.22369798 -3.75997347 46.44372453 -8.3125 46.25 C-10.13783221 44.42466779 -9.43591006 41.97190886 -9.4453125 39.55078125 C-9.28291522 36.73748711 -8.81204447 34.02128243 -8.3125 31.25 C-9.18261719 32.24580078 -9.18261719 32.24580078 -10.0703125 33.26171875 C-20.96044572 45.5715228 -20.96044572 45.5715228 -26.5625 47.1875 C-27.47 47.208125 -28.3775 47.22875 -29.3125 47.25 C-31.3125 45.25 -31.3125 45.25 -31.6875 42 C-31.25918311 28.79356252 -24.39774731 12.88637445 -15.3125 3.25 C-10.27302753 -0.14408102 -5.85555754 -0.1502629 0 0 Z M-7.8125 5.125 C-15.93357646 12.02791499 -23.08031393 26.11019595 -24.25 36.6875 C-24.270625 37.863125 -24.29125 39.03875 -24.3125 40.25 C-12.19346891 34.87570684 -4.15621675 19.90685678 0.6875 8.25 C0.6875 7.26 0.6875 6.27 0.6875 5.25 C-2.5341386 4.42585989 -4.63646595 4.01338808 -7.8125 5.125 Z " fill="#4488FF" transform="translate(588.3125,75.75)"/>
<path d="M0 0 C0.33 -0.33 0.66 -0.66 1 -1 C2.66617115 -1.04063832 4.33388095 -1.042721 6 -1 C7.35281097 2.07457039 6.92902928 3.19516948 5.75 6.4375 C4 10 4 10 2.55859375 12.12890625 C0.40992917 16.08697259 -0.58545494 20.15174971 -1.6875 24.5 C-1.91244141 25.34175781 -2.13738281 26.18351562 -2.36914062 27.05078125 C-3.41858865 31.101842 -4.32015188 34.77745623 -4 39 C-1.24927823 37.47182124 0.95315792 36.04684208 3.1875 33.8125 C3.785625 33.214375 4.38375 32.61625 5 32 C5.66 32 6.32 32 7 32 C6.48389962 36.02920471 4.58326142 37.61139466 1.5625 40.1875 C0.75941406 40.88230469 -0.04367187 41.57710937 -0.87109375 42.29296875 C-4.36192347 45.09203772 -6.54590937 45.27838066 -11 45 C-11.66 44.34 -12.32 43.68 -13 43 C-12.7578125 39.7421875 -12.7578125 39.7421875 -12.125 35.875 C-11.92132812 34.59367187 -11.71765625 33.31234375 -11.5078125 31.9921875 C-11.34023438 31.00476563 -11.17265625 30.01734375 -11 29 C-11.49628906 29.65226562 -11.99257813 30.30453125 -12.50390625 30.9765625 C-23.30822444 44.87661513 -23.30822444 44.87661513 -29.9375 45.875 C-30.948125 45.91625 -31.95875 45.9575 -33 46 C-36.40241782 37.59476782 -33.56977254 29.64096871 -30.2578125 21.58984375 C-26.5579784 13.13545086 -22.69394097 4.50396368 -14.5625 -0.5 C-9.61504983 -1.46535613 -4.87716893 -1.3656073 0 0 Z M-14 6 C-15.51038151 8.14828885 -16.76861544 10.1432394 -18 12.4375 C-18.51046875 13.36477905 -18.51046875 13.36477905 -19.03125 14.31079102 C-25.62186748 26.00293496 -25.62186748 26.00293496 -27 39 C-15.69315373 32.78222464 -7.053987 19.73579782 -3 7.6875 C-2.67 6.470625 -2.34 5.25375 -2 4 C-7.2561221 2.86632661 -9.69928793 2.70925298 -14 6 Z " fill="#4587FF" transform="translate(673,77)"/>
<path d="M0 0 C0.33 -0.33 0.66 -0.66 1 -1 C2.66617115 -1.04063832 4.33388095 -1.042721 6 -1 C7.35281097 2.07457039 6.92902928 3.19516948 5.75 6.4375 C4 10 4 10 2.55859375 12.12890625 C0.40992917 16.08697259 -0.58545494 20.15174971 -1.6875 24.5 C-1.91244141 25.34175781 -2.13738281 26.18351562 -2.36914062 27.05078125 C-3.41858865 31.101842 -4.32015188 34.77745623 -4 39 C-1.24927823 37.47182124 0.95315792 36.04684208 3.1875 33.8125 C3.785625 33.214375 4.38375 32.61625 5 32 C5.66 32 6.32 32 7 32 C6.48389962 36.02920471 4.58326142 37.61139466 1.5625 40.1875 C0.75941406 40.88230469 -0.04367187 41.57710937 -0.87109375 42.29296875 C-4.36192347 45.09203772 -6.54590937 45.27838066 -11 45 C-11.66 44.34 -12.32 43.68 -13 43 C-12.7578125 39.7421875 -12.7578125 39.7421875 -12.125 35.875 C-11.92132813 34.59367187 -11.71765625 33.31234375 -11.5078125 31.9921875 C-11.34023438 31.00476563 -11.17265625 30.01734375 -11 29 C-11.49628906 29.65226562 -11.99257813 30.30453125 -12.50390625 30.9765625 C-23.30822444 44.87661513 -23.30822444 44.87661513 -29.9375 45.875 C-30.948125 45.91625 -31.95875 45.9575 -33 46 C-36.40241782 37.59476782 -33.56977254 29.64096871 -30.2578125 21.58984375 C-26.5579784 13.13545086 -22.69394097 4.50396368 -14.5625 -0.5 C-9.61504983 -1.46535613 -4.87716893 -1.3656073 0 0 Z M-14 6 C-15.51038151 8.14828885 -16.76861544 10.1432394 -18 12.4375 C-18.51046875 13.36477905 -18.51046875 13.36477905 -19.03125 14.31079102 C-25.62186748 26.00293496 -25.62186748 26.00293496 -27 39 C-15.69315373 32.78222464 -7.053987 19.73579782 -3 7.6875 C-2.67 6.470625 -2.34 5.25375 -2 4 C-7.2561221 2.86632661 -9.69928793 2.70925298 -14 6 Z " fill="#4587FF" transform="translate(313,77)"/>
<path d="M0 0 C0.33 -0.33 0.66 -0.66 1 -1 C2.66617115 -1.04063832 4.33388095 -1.042721 6 -1 C7.35281097 2.07457039 6.92902928 3.19516948 5.75 6.4375 C4 10 4 10 2.55859375 12.12890625 C0.40992917 16.08697259 -0.58545494 20.15174971 -1.6875 24.5 C-1.91244141 25.34175781 -2.13738281 26.18351562 -2.36914062 27.05078125 C-3.41858865 31.101842 -4.32015188 34.77745623 -4 39 C-1.24927823 37.47182124 0.95315792 36.04684208 3.1875 33.8125 C3.785625 33.214375 4.38375 32.61625 5 32 C5.66 32 6.32 32 7 32 C6.48389962 36.02920471 4.58326142 37.61139466 1.5625 40.1875 C0.75941406 40.88230469 -0.04367188 41.57710937 -0.87109375 42.29296875 C-4.36192347 45.09203772 -6.54590937 45.27838066 -11 45 C-11.66 44.34 -12.32 43.68 -13 43 C-12.7578125 39.7421875 -12.7578125 39.7421875 -12.125 35.875 C-11.92132813 34.59367187 -11.71765625 33.31234375 -11.5078125 31.9921875 C-11.34023437 31.00476563 -11.17265625 30.01734375 -11 29 C-11.49628906 29.65226562 -11.99257812 30.30453125 -12.50390625 30.9765625 C-23.30822444 44.87661513 -23.30822444 44.87661513 -29.9375 45.875 C-30.948125 45.91625 -31.95875 45.9575 -33 46 C-36.40241782 37.59476782 -33.56977254 29.64096871 -30.2578125 21.58984375 C-26.5579784 13.13545086 -22.69394097 4.50396368 -14.5625 -0.5 C-9.61504983 -1.46535613 -4.87716893 -1.3656073 0 0 Z M-14 6 C-15.51038151 8.14828885 -16.76861544 10.1432394 -18 12.4375 C-18.51046875 13.36477905 -18.51046875 13.36477905 -19.03125 14.31079102 C-25.62186748 26.00293496 -25.62186748 26.00293496 -27 39 C-15.69315373 32.78222464 -7.053987 19.73579782 -3 7.6875 C-2.67 6.470625 -2.34 5.25375 -2 4 C-7.2561221 2.86632661 -9.69928793 2.70925298 -14 6 Z " fill="#4587FF" transform="translate(217,77)"/>
<path d="M0 0 C5.98834125 0.1460571 9.81364079 3.00760338 14 7 C19.81533966 13.83476175 23.88670466 21.11658916 24.4375 30.1875 C23.82923986 35.48805267 22.18095959 38.21597506 18.046875 41.59765625 C8.75571241 48.20867579 -0.56144286 50.49965659 -12 49 C-13.8828125 47.72265625 -13.8828125 47.72265625 -15 46 C-16.51192885 34.09356032 -9.44628567 21.37102013 -2.5078125 11.98046875 C-1.37908882 10.61898567 -0.19662351 9.30220794 1 8 C0.484375 7.5875 -0.03125 7.175 -0.5625 6.75 C-1.036875 6.1725 -1.51125 5.595 -2 5 C-1.74853421 2.86254078 -1.54074221 1.54074221 0 0 Z M5 11 C3.2938455 13.23762917 1.725724 15.46263896 0.1875 17.8125 C-0.26028809 18.49376953 -0.70807617 19.17503906 -1.16943359 19.87695312 C-8.51696055 31.07211499 -8.51696055 31.07211499 -10 44 C-5.98528144 46.00735928 -3.33984844 46.10829123 0.875 44.9375 C6.76399589 42.93897198 13.03472675 39.95962311 17 35 C18.05870023 26.91086856 13.25278838 19.21826911 8.8125 12.875 C8.214375 12.25625 7.61625 11.6375 7 11 C6.34 11 5.68 11 5 11 Z " fill="#4488FF" transform="translate(363,115)"/>
<path d="M0 0 C-0.58523062 4.02410787 -1.46034696 7.67834774 -2.8203125 11.5078125 C-3.18745361 12.56371582 -3.55459473 13.61961914 -3.93286133 14.70751953 C-4.32626709 15.83528809 -4.71967285 16.96305664 -5.125 18.125 C-8.91363318 29.17360246 -11.99991708 40.23447944 -14.61572266 51.62158203 C-16.4680812 59.52691408 -18.42685434 67.74343322 -24 73.9375 C-24.474375 74.48277344 -24.94875 75.02804688 -25.4375 75.58984375 C-29.65971218 79.40039024 -33.86191097 79.50980932 -39.359375 79.35546875 C-42 79 -42 79 -45.1875 77.25 C-47.92904033 72.33413458 -47.56994936 67.51222451 -47 62 C-46.67 61.34 -46.34 60.68 -46 60 C-45.01 60 -44.02 60 -43 60 C-42.87882813 60.67546875 -42.75765625 61.3509375 -42.6328125 62.046875 C-42.46523437 62.93890625 -42.29765625 63.8309375 -42.125 64.75 C-41.96257812 65.63171875 -41.80015625 66.5134375 -41.6328125 67.421875 C-41.01952783 69.92044218 -40.408658 71.84788361 -39 74 C-35.94091587 74.81584568 -35.94091587 74.81584568 -33 75 C-29.05134431 70.73373505 -27.48130225 66.48714335 -25.75 61.0625 C-25.45843018 60.16805176 -25.16686035 59.27360352 -24.86645508 58.35205078 C-22.23470057 50.09352317 -19.93193421 41.74524713 -17.6875 33.375 C-17.35008789 32.11953369 -17.01267578 30.86406738 -16.66503906 29.57055664 C-14.97903854 23.1602599 -13.49342398 16.79606118 -12.44824219 10.2487793 C-11.82823643 7.13828201 -10.7061263 4.66155703 -9 2 C-5.5647952 -0.29013653 -4.014669 -0.17842973 0 0 Z " fill="#4587FF" transform="translate(249,75)"/>
<path d="M0 0 C2.82787659 2.64543294 3.84582762 5.48607781 4.23828125 9.33984375 C4.26277344 10.19707031 4.28726563 11.05429688 4.3125 11.9375 C4.34988281 12.79214844 4.38726563 13.64679688 4.42578125 14.52734375 C3.83273051 17.97139073 2.83517728 18.9634642 0 21 C-2.71124079 21.87696388 -5.43633995 22.32745388 -8.25 22.75 C-8.99507812 22.87503906 -9.74015625 23.00007813 -10.5078125 23.12890625 C-12.33620503 23.43363834 -14.16784304 23.71878521 -16 24 C-18.13619737 30.20514474 -19.36517527 35.42684522 -19 42 C-12.78025295 40.05632905 -9.83473222 36.9267542 -5.796875 31.86328125 C-4.90742187 30.94095703 -4.90742187 30.94095703 -4 30 C-3.01 30 -2.02 30 -1 30 C-1.1046066 34.28887049 -2.17889191 36.59065785 -5.0625 39.625 C-9.5450213 43.75847251 -14.00399466 47 -20.25 47 C-23.58109007 45.78869452 -25.02222204 44.96666694 -27 42 C-27.80204856 35.6981899 -26.21846203 30.05732384 -24.65625 23.953125 C-23.85537969 20.85340246 -23.85537969 20.85340246 -24 17 C-23.01 17 -22.02 17 -21 17 C-20.773125 16.175 -20.54625 15.35 -20.3125 14.5 C-18.26472566 9.03926844 -16.01121703 4.43019878 -11.1875 1 C-7.05857507 -0.295349 -4.32082594 -0.49583248 0 0 Z M-7.4375 6.3203125 C-10.67252955 10.05677163 -12.80251063 13.09029358 -14 18 C-9.99799622 19.60080151 -6.95443764 18.29279692 -3 17 C-2.07529447 12.28400182 -1.77076223 9.32734391 -4 5 C-6.07980822 4.7745169 -6.07980822 4.7745169 -7.4375 6.3203125 Z " fill="#4586FF" transform="translate(739,77)"/>
<path d="M0 0 C-0.6496875 1.69769531 -0.6496875 1.69769531 -1.3125 3.4296875 C-1.87517286 4.9113927 -2.43766343 6.39316714 -3 7.875 C-3.42925781 8.99455078 -3.42925781 8.99455078 -3.8671875 10.13671875 C-5.43336648 13.95985011 -5.43336648 13.95985011 -6 18 C-5.48050781 17.33613281 -4.96101562 16.67226562 -4.42578125 15.98828125 C2.76906126 6.87836051 2.76906126 6.87836051 7 3 C7.639375 2.401875 8.27875 1.80375 8.9375 1.1875 C11.7290033 -0.41972917 13.8363708 -0.28121148 17 0 C18 1 18 1 18.01953125 2.890625 C17.5693595 8.02088424 17.03292354 11.41517907 13 15 C10.25 15.8125 10.25 15.8125 8 16 C8.33 13.36 8.66 10.72 9 8 C-0.49728995 17.54780745 -6.33271416 29.03017647 -11.74243164 41.20166016 C-12.94675059 43.89119721 -13.89586133 45.89586133 -16 48 C-18.625 48.125 -18.625 48.125 -21 48 C-20.64400092 42.69684136 -19.8495591 38.25737309 -17.828125 33.29296875 C-15.50712919 26.8664379 -14.06902832 19.99618304 -13.5625 13.1875 C-13.14680213 8.68133514 -11.74518738 4.6341052 -9 1 C-5.76147505 -1.28153043 -3.74207835 -1.03946621 0 0 Z " fill="#4488FF" transform="translate(699,75)"/>
<path d="M0 0 C-0.18175781 0.53367187 -0.36351562 1.06734375 -0.55078125 1.6171875 C-2.4936055 7.37591783 -4.28384432 13.16993922 -6 19 C-5.43152344 18.20335938 -4.86304688 17.40671875 -4.27734375 16.5859375 C6.45537054 1.85757164 6.45537054 1.85757164 13.875 0.0625 C14.90625 0.041875 15.9375 0.02125 17 0 C18 1 18 1 18.3125 4.1875 C17.88183252 9.44164332 15.65962865 12.34037135 12 16 C10.68 16 9.36 16 8 16 C8.52268466 13.23723823 9.10869587 10.6739124 10 8 C-0.37041681 15.00003134 -8.37126611 31.43114261 -12.0078125 43.28515625 C-13 46 -13 46 -16 48 C-18.6875 48.125 -18.6875 48.125 -21 48 C-20.55178471 42.97998873 -19.70841578 38.96118194 -17.82421875 34.24609375 C-15.31893921 27.41891017 -13.99099504 20.30766653 -13 13.125 C-12.33236524 8.5926827 -11.76056172 4.78299198 -9 1 C-5.54611333 -1.03690752 -3.74885523 -1.09043135 0 0 Z M-8 20 C-7 22 -7 22 -7 22 Z " fill="#4587FF" transform="translate(267,75)"/>
<path d="M0 0 C1.05106003 12.61272034 -5.46082493 23.96094441 -13.26025391 33.54931641 C-26.19436486 48.79859122 -26.19436486 48.79859122 -34.5 50.875 C-35.325 50.91625 -36.15 50.9575 -37 51 C-36.40087772 48.52225681 -35.72325291 46.13912253 -34.94140625 43.70703125 C-33.30679447 37.17009906 -33.82873531 30.37454386 -33.9375 23.6875 C-33.97394793 20.98306333 -34.00201736 18.27881089 -34.02734375 15.57421875 C-34.04531006 14.38401123 -34.06327637 13.19380371 -34.08178711 11.9675293 C-34 9 -34 9 -33 6 C-30.29120665 4.64560332 -27.99066732 4.93498549 -25 5 C-23.90354471 8.28936586 -24.08579685 9.87125584 -24.55859375 13.26171875 C-24.69716797 14.29876953 -24.83574219 15.33582031 -24.97851562 16.40429688 C-25.20571289 18.02948242 -25.20571289 18.02948242 -25.4375 19.6875 C-26.38408118 26.51197828 -27.20848046 33.10346646 -27 40 C-16.86580919 30.89991029 -9.99801537 20.98015368 -8.625 7.25 C-7.56387607 1.73215554 -5.57742639 0 0 0 Z " fill="#4587FF" transform="translate(639,73)"/>
<path d="M0 0 C4.875 0.875 4.875 0.875 6 2 C6.20971908 3.59910799 6.3682067 5.20509246 6.5 6.8125 C6.76229108 9.98341183 7.14211808 12.93307212 8 16 C7.01 16 6.02 16 5 16 C4.99742187 16.60585937 4.99484375 17.21171875 4.9921875 17.8359375 C4.61411102 26.02759462 1.84845047 32.01410487 -3.859375 37.92578125 C-7.87086326 41.28740841 -11.67619651 43.05725331 -16.9453125 43.28515625 C-19 43 -19 43 -22.0625 41.125 C-25.27418293 35.94486625 -24.64970373 31.87016179 -23.3359375 26.06640625 C-20.84673097 17.57063615 -16.63849051 9.87436748 -9 5 C-7.80375 4.855625 -6.6075 4.71125 -5.375 4.5625 C-3.704375 4.2840625 -3.704375 4.2840625 -2 4 C-0.48705712 2.06402968 -0.48705712 2.06402968 0 0 Z M-7.46484375 10.43359375 C-13.62622295 18.81764556 -17.20166133 26.51361096 -17 37 C-15.20668509 37.77272391 -15.20668509 37.77272391 -13 38 C-7.43609186 34.89203569 -3.86600559 30.06007652 -1.6171875 24.19921875 C-0.06605158 18.67206985 -0.95181442 14.24847555 -3 9 C-5.98425947 8.65027883 -5.98425947 8.65027883 -7.46484375 10.43359375 Z " fill="#4587FF" transform="translate(387,72)"/>
<path d="M0 0 C-0.55110002 3.85770014 -2.26310969 5.34360647 -5 8 C-5.495 8.9075 -5.99 9.815 -6.5 10.75 C-7.2425 11.86375 -7.2425 11.86375 -8 13 C-9.32 13 -10.64 13 -12 13 C-13.48247043 10.03505913 -13.51546343 8.28607933 -13 5 C-9.30818547 0.89205608 -5.53584931 -0.67510357 0 0 Z " fill="#4488FF" transform="translate(255,55)"/>
</svg>
